<svg width="22" height="22" viewBox="0 0 22 22" fill="none" xmlns="http://www.w3.org/2000/svg">
<path d="M9.16665 2.75H12.8333C14.7782 2.75 16.6435 3.52262 18.0188 4.89788C19.394 6.27315 20.1666 8.13841 20.1666 10.0833C20.1666 12.0283 19.394 13.8935 18.0188 15.2688C16.6435 16.6441 14.7782 17.4167 12.8333 17.4167V20.625C8.24998 18.7917 1.83331 16.0417 1.83331 10.0833C1.83331 8.13841 2.60593 6.27315 3.9812 4.89788C5.35646 3.52262 7.22173 2.75 9.16665 2.75ZM11 15.5833H12.8333C13.5556 15.5833 14.2708 15.4411 14.9381 15.1647C15.6054 14.8883 16.2117 14.4831 16.7224 13.9724C17.2331 13.4617 17.6383 12.8554 17.9147 12.1881C18.1911 11.5208 18.3333 10.8056 18.3333 10.0833C18.3333 9.36106 18.1911 8.64587 17.9147 7.97857C17.6383 7.31128 17.2331 6.70497 16.7224 6.19425C16.2117 5.68352 15.6054 5.2784 14.9381 5.002C14.2708 4.72559 13.5556 4.58333 12.8333 4.58333H9.16665C7.70796 4.58333 6.30901 5.1628 5.27756 6.19425C4.24611 7.2257 3.66665 8.62464 3.66665 10.0833C3.66665 13.3925 5.92348 15.5522 11 17.8567V15.5833Z" fill="#8D9FBB"/>
</svg>
