<svg width="14" height="14" viewBox="0 0 14 14" fill="none" xmlns="http://www.w3.org/2000/svg">
<path d="M9.91663 1.75009C10.0698 1.59689 10.2517 1.47535 10.4519 1.39244C10.6521 1.30952 10.8666 1.26685 11.0833 1.26685C11.3 1.26685 11.5145 1.30952 11.7147 1.39244C11.9149 1.47535 12.0968 1.59689 12.25 1.75009C12.4032 1.9033 12.5247 2.08519 12.6076 2.28537C12.6905 2.48554 12.7332 2.70009 12.7332 2.91676C12.7332 3.13343 12.6905 3.34798 12.6076 3.54816C12.5247 3.74833 12.4032 3.93022 12.25 4.08343L4.37496 11.9584L1.16663 12.8334L2.04163 9.6251L9.91663 1.75009Z" stroke="#85B6FF" stroke-width="1.16667" stroke-linecap="round" stroke-linejoin="round"/>
</svg>
