<svg width="22" height="22" viewBox="0 0 22 22" fill="none" xmlns="http://www.w3.org/2000/svg">
<path d="M15.125 2.75C17.9099 2.75 20.1667 5.04167 20.1667 8.25C20.1667 14.6667 13.2917 18.3333 11 19.7083C8.70837 18.3333 1.83337 14.6667 1.83337 8.25C1.83337 5.04167 4.12504 2.75 6.87504 2.75C8.58004 2.75 10.0834 3.66667 11 4.58333C11.9167 3.66667 13.42 2.75 15.125 2.75ZM11.8562 17.0537C12.6638 16.544 13.3925 16.0371 14.0745 15.4944C16.8071 13.3219 18.3334 10.9477 18.3334 8.25C18.3334 6.08667 16.9245 4.58333 15.125 4.58333C14.1387 4.58333 13.0717 5.10583 12.2962 5.8795L11 7.17567L9.70387 5.8795C8.92837 5.10583 7.86137 4.58333 6.87504 4.58333C5.09671 4.58333 3.66671 6.10133 3.66671 8.25C3.66671 10.9487 5.19387 13.3219 7.92462 15.4944C8.60754 16.0371 9.33629 16.544 10.1439 17.0527C10.418 17.226 10.6893 17.3919 11 17.5771C11.3108 17.3919 11.5821 17.226 11.8562 17.0537V17.0537Z" fill="#8D9FBB"/>
</svg>
