<svg width="22" height="22" viewBox="0 0 22 22" fill="none" xmlns="http://www.w3.org/2000/svg">
<path d="M3.66665 2.75H18.3333C18.8195 2.75 19.2859 2.94315 19.6297 3.28697C19.9735 3.63079 20.1666 4.0971 20.1666 4.58333V10.0833C20.1666 12.5145 19.2009 14.8461 17.4818 16.5651C15.7627 18.2842 13.4311 19.25 11 19.25C9.7962 19.25 8.6042 19.0129 7.49205 18.5522C6.3799 18.0916 5.36937 17.4163 4.51817 16.5651C2.79908 14.8461 1.83331 12.5145 1.83331 10.0833V4.58333C1.83331 4.0971 2.02647 3.63079 2.37028 3.28697C2.7141 2.94315 3.18042 2.75 3.66665 2.75V2.75Z" stroke="#8D9FBB" stroke-width="2" stroke-linecap="round" stroke-linejoin="round"/>
<path d="M14.6667 11.9167L11 8.25008L7.33335 11.9167" stroke="#8D9FBB" stroke-width="2" stroke-linecap="round" stroke-linejoin="round"/>
</svg>
