<svg width="24" height="22" viewBox="0 0 24 22" fill="none" xmlns="http://www.w3.org/2000/svg">
<g filter="url(#filter0_b_481_5514)">
<g filter="url(#filter1_d_481_5514)">
<path d="M3.75 11C3.75 12.0084 4.575 12.8334 5.58333 12.8334C6.59167 12.8334 7.41667 12.0084 7.41667 11C7.41667 9.99171 6.59167 9.16671 5.58333 9.16671C4.575 9.16671 3.75 9.99171 3.75 11ZM16.5833 11C16.5833 12.0084 17.4083 12.8334 18.4167 12.8334C19.425 12.8334 20.25 12.0084 20.25 11C20.25 9.99171 19.425 9.16671 18.4167 9.16671C17.4083 9.16671 16.5833 9.99171 16.5833 11ZM10.1667 11C10.1667 12.0084 10.9917 12.8334 12 12.8334C13.0083 12.8334 13.8333 12.0084 13.8333 11C13.8333 9.99171 13.0083 9.16671 12 9.16671C10.9917 9.16671 10.1667 9.99171 10.1667 11Z" fill="white"/>
</g>
</g>
<defs>
<filter id="filter0_b_481_5514" x="-3" y="-4" width="30" height="30" filterUnits="userSpaceOnUse" color-interpolation-filters="sRGB">
<feFlood flood-opacity="0" result="BackgroundImageFix"/>
<feGaussianBlur in="BackgroundImage" stdDeviation="2"/>
<feComposite in2="SourceAlpha" operator="in" result="effect1_backgroundBlur_481_5514"/>
<feBlend mode="normal" in="SourceGraphic" in2="effect1_backgroundBlur_481_5514" result="shape"/>
</filter>
<filter id="filter1_d_481_5514" x="0.75" y="6.16675" width="22.5" height="9.66663" filterUnits="userSpaceOnUse" color-interpolation-filters="sRGB">
<feFlood flood-opacity="0" result="BackgroundImageFix"/>
<feColorMatrix in="SourceAlpha" type="matrix" values="0 0 0 0 0 0 0 0 0 0 0 0 0 0 0 0 0 0 127 0" result="hardAlpha"/>
<feOffset/>
<feGaussianBlur stdDeviation="1.5"/>
<feComposite in2="hardAlpha" operator="out"/>
<feColorMatrix type="matrix" values="0 0 0 0 0 0 0 0 0 0 0 0 0 0 0 0 0 0 0.25 0"/>
<feBlend mode="normal" in2="BackgroundImageFix" result="effect1_dropShadow_481_5514"/>
<feBlend mode="normal" in="SourceGraphic" in2="effect1_dropShadow_481_5514" result="shape"/>
</filter>
</defs>
</svg>
