<svg width="375" height="546" viewBox="0 0 375 546" fill="none" xmlns="http://www.w3.org/2000/svg">
<g clip-path="url(#clip0_461_4334)">
<path opacity="0.961467" d="M357.094 2.86845C388.803 2.83513 413.757 21.6626 436.653 45.9515C446.143 56.0182 455.27 67.0129 464.374 77.9804C466.252 80.2424 468.128 82.5033 470.007 84.7546C480.992 97.9175 492.045 110.753 503.747 121.559C521.651 138.094 537.077 156.608 552.495 175.112C553.425 176.228 554.354 177.343 555.284 178.458C571.636 198.065 588.146 217.525 607.742 234.435C626.361 250.503 649.551 261.872 672.488 273.118C679.017 276.32 685.527 279.511 691.904 282.798C720.708 297.643 746.841 314.44 760.267 342.901C773.229 370.38 775.029 401.289 770.623 432.348C766.216 463.408 755.604 494.603 743.762 522.642C732.537 549.216 713.011 569.876 691.83 589.609C687.186 593.935 682.462 598.218 677.728 602.509C660.886 617.776 643.93 633.147 630.066 650.974C616.549 668.355 605.769 687.543 595.044 706.633C592.821 710.59 590.6 714.543 588.357 718.475C575.292 741.384 561.49 763.585 542.213 781.798C500.335 821.365 453.591 862.133 396.829 871.392C341.232 880.462 285.743 856.518 233.765 834.09C232.654 833.61 231.544 833.132 230.436 832.654C205.841 822.048 184.532 806.474 163.594 790.118C160.133 787.414 156.682 784.689 153.228 781.961C135.793 768.193 118.28 754.363 99.0142 742.932C79.123 731.129 56.3569 723.314 33.7805 715.563C25.9191 712.865 18.0807 710.174 10.3947 707.325C-19.3867 696.288 -46.9041 682.878 -64.8146 657.483C-100.047 607.526 -99.5374 537.659 -88.2642 477.482C-82.8995 448.845 -68.0113 424.305 -51.2169 400.361C-47.3664 394.871 -43.415 389.412 -39.4558 383.942C-26.1557 365.566 -12.7667 347.068 -2.81249 326.874C6.20979 308.571 11.6833 288.367 17.1136 268.323C18.7897 262.136 20.4618 255.964 22.2327 249.868C29.7468 224.004 39.0454 199.484 57.9782 180.791C76.9032 162.106 102.1 154.203 128.343 147.565C132.013 146.636 135.704 145.733 139.401 144.827C162.116 139.265 185.056 133.648 204.802 121.905C218.838 113.558 231.312 101.935 243.142 89.2088C249.936 81.9006 256.529 74.2132 263.085 66.5706C267.935 60.9162 272.764 55.2862 277.637 49.8525C300.591 24.2585 324.624 2.90258 357.094 2.86845Z" stroke="#D3B298" stroke-width="0.5"/>
<path opacity="0.961467" d="M546.596 810.407C547.631 842.099 529.6 867.635 506.047 891.286C496.284 901.089 485.583 910.559 474.909 920.005C472.707 921.953 470.507 923.9 468.316 925.849C455.506 937.244 443.027 948.697 432.595 960.734C416.633 979.152 398.616 995.154 380.608 1011.15C379.522 1012.11 378.437 1013.08 377.352 1014.04C358.271 1031.01 339.342 1048.12 323.059 1068.24C307.587 1087.36 296.955 1110.9 286.439 1134.18C283.446 1140.8 280.462 1147.41 277.378 1153.89C263.45 1183.15 247.486 1209.8 219.463 1224.11C192.407 1237.94 161.57 1240.71 130.387 1237.29C99.2041 1233.87 67.6898 1224.24 39.2909 1213.29C12.375 1202.91 -8.89067 1184.05 -29.2824 1163.5C-33.7536 1159 -38.1832 1154.41 -42.6213 1149.81C-58.4133 1133.46 -74.312 1117 -92.5671 1103.71C-110.367 1090.74 -129.885 1080.58 -149.304 1070.46C-153.33 1068.36 -157.351 1066.27 -161.351 1064.15C-184.661 1051.81 -207.288 1038.72 -226.1 1020.03C-266.97 979.42 -309.193 933.986 -320.24 877.545C-331.061 822.263 -308.881 766.045 -288.105 713.384C-287.661 712.259 -287.217 711.135 -286.775 710.012C-276.951 685.095 -262.058 663.305 -246.371 641.861C-243.778 638.316 -241.163 634.78 -238.545 631.242C-225.335 613.38 -212.065 595.44 -201.247 575.823C-190.078 555.569 -182.986 532.567 -175.952 509.757C-173.503 501.815 -171.061 493.895 -168.457 486.123C-158.365 456.008 -145.831 428.081 -121.014 409.378C-72.1945 372.585 -2.34605 370.889 58.1567 380.256C86.9491 384.714 111.947 398.82 136.41 414.85C142.018 418.525 147.6 422.302 153.192 426.087C171.978 438.8 190.89 451.598 211.388 460.91C229.967 469.35 250.334 474.183 270.539 478.977C276.776 480.457 282.998 481.934 289.146 483.511C315.235 490.205 340.037 498.725 359.317 517.058C378.59 535.384 387.285 560.318 394.749 586.338C395.793 589.978 396.813 593.638 397.834 597.305C404.111 619.833 410.449 642.584 422.81 661.949C431.597 675.715 443.607 687.816 456.701 699.238C464.22 705.797 472.112 712.145 479.957 718.456C485.762 723.125 491.542 727.774 497.127 732.473C523.433 754.608 545.537 777.954 546.596 810.407Z" stroke="#D3B298" stroke-width="0.5"/>
</g>
<defs>
<clipPath id="clip0_461_4334">
<rect width="375" height="546" fill="white"/>
</clipPath>
</defs>
</svg>
