<svg width="375" height="978" viewBox="0 0 375 978" fill="none" xmlns="http://www.w3.org/2000/svg">
<g clip-path="url(#clip0_481_4333)">
<path opacity="0.961467" d="M500.295 19.3881C527.8 35.1656 540.047 63.9264 547.788 96.3957C550.996 109.853 553.428 123.934 555.853 137.98C556.354 140.877 556.854 143.772 557.36 146.661C560.321 163.547 563.505 180.184 568.262 195.385C575.541 218.645 579.685 242.383 583.826 266.111C584.076 267.541 584.326 268.971 584.576 270.401C588.978 295.55 593.59 320.649 602.148 345.077C610.279 368.288 624.715 389.704 638.993 410.886C643.058 416.917 647.11 422.928 651 428.956C668.57 456.183 682.852 483.772 680.303 515.137C677.842 545.421 663.995 573.113 644.692 597.841C625.389 622.57 600.64 644.323 576.396 662.727C553.419 680.169 526.193 688.345 497.995 694.893C491.812 696.329 485.582 697.686 479.34 699.046C457.128 703.886 434.767 708.759 413.862 717.302C393.48 725.632 374.57 736.892 355.756 748.094C351.856 750.417 347.961 752.736 344.057 755.027C321.31 768.374 298.278 780.74 272.489 786.92C216.461 800.344 155.616 812.385 101.794 792.117C49.0761 772.265 12.9082 723.848 -20.9714 678.494C-21.6956 677.524 -22.4188 676.556 -23.1411 675.59C-39.1757 654.136 -49.8851 630.012 -59.8827 605.396C-61.5354 601.327 -63.1687 597.244 -64.8034 593.157C-73.0546 572.53 -81.3427 551.811 -92.3453 532.298C-103.705 512.15 -119.545 494.027 -135.253 476.054C-140.723 469.796 -146.177 463.556 -151.42 457.255C-171.735 432.841 -188.906 407.499 -191.773 376.556C-197.413 315.686 -162.144 255.372 -122.374 208.825C-103.448 186.673 -78.3083 172.821 -51.8133 160.436C-45.7387 157.596 -39.592 154.833 -33.433 152.065C-12.7433 142.765 8.08472 133.403 26.7805 120.859C43.7259 109.489 58.5421 94.7034 73.2414 80.034C77.7785 75.5062 82.3045 70.9894 86.8785 66.5877C106.285 47.9118 126.569 31.2903 152.3 24.5237C178.02 17.7598 203.803 23.4689 229.862 30.7956C233.507 31.8203 237.157 32.8767 240.813 33.9349C263.277 40.4365 285.963 47.0022 308.935 46.665C325.264 46.4253 341.872 42.5682 358.471 37.4328C368.003 34.4838 377.551 31.1065 387.044 27.7489C394.067 25.2648 401.06 22.7914 407.993 20.5102C440.65 9.76519 472.13 3.23192 500.295 19.3881Z" stroke="#D3B298" stroke-width="0.5"/>
<path opacity="0.961467" d="M-55.932 1005.95C-36.7945 980.669 -6.71309 972.167 26.4756 968.605C40.2311 967.129 54.5066 966.503 68.7468 965.878C71.6839 965.749 74.6194 965.62 77.5486 965.484C94.6745 964.687 111.58 963.639 127.262 960.847C151.257 956.576 175.329 955.476 199.39 954.376C200.841 954.309 202.291 954.243 203.741 954.176C229.245 952.998 254.727 951.605 280.042 946.214C304.097 941.091 327.17 929.487 349.992 918.01C356.489 914.742 362.965 911.485 369.438 908.391C398.673 894.415 427.85 883.746 458.639 890.251C488.367 896.532 514.079 913.778 536.161 936.061C558.243 958.343 576.682 985.651 591.863 1012.03C606.252 1037.04 610.91 1065.08 613.83 1093.88C614.47 1100.19 615.027 1106.55 615.585 1112.91C617.569 1135.56 619.567 1158.35 625.391 1180.17C631.069 1201.45 639.841 1221.63 648.568 1241.72C650.377 1245.88 652.184 1250.04 653.961 1254.2C664.316 1278.45 673.663 1302.87 676.522 1329.23C682.735 1386.51 686.964 1448.39 660.036 1499.21C633.66 1548.98 581.048 1578.72 531.765 1606.58C530.711 1607.17 529.659 1607.77 528.609 1608.36C505.295 1621.55 480.009 1629.11 454.323 1635.91C450.077 1637.03 445.82 1638.13 441.559 1639.24C420.053 1644.81 398.45 1650.4 377.699 1658.84C356.274 1667.55 336.288 1680.97 316.469 1694.27C309.568 1698.9 302.687 1703.52 295.772 1707.92C268.979 1724.98 241.665 1738.8 210.608 1737.72C149.514 1735.6 94.1589 1692.96 53.0293 1647.61C33.4563 1626.03 22.9033 1599.34 13.977 1571.49C11.9304 1565.1 9.9692 1558.65 8.00406 1552.19C1.40265 1530.49 -5.24295 1508.65 -15.3155 1488.51C-24.445 1470.26 -37.2332 1453.69 -49.9205 1437.25C-53.8366 1432.17 -57.743 1427.11 -61.5293 1422.02C-77.594 1400.4 -91.5095 1378.17 -94.9592 1351.79C-98.4075 1325.42 -89.4756 1300.57 -78.904 1275.65C-77.4255 1272.16 -75.9148 1268.68 -74.4017 1265.18C-65.1044 1243.73 -55.7153 1222.05 -53.1372 1199.23C-51.3047 1183 -53.025 1166.04 -56.0144 1148.92C-57.7311 1139.09 -59.8705 1129.19 -61.9975 1119.35C-63.5711 1112.07 -65.1379 1104.82 -66.5217 1097.65C-73.0395 1063.9 -75.5288 1031.84 -55.932 1005.95Z" stroke="#D3B298" stroke-width="0.5"/>
</g>
<defs>
<clipPath id="clip0_481_4333">
<rect width="375" height="978" fill="white"/>
</clipPath>
</defs>
</svg>
