<svg width="225" height="56" fill="none" xmlns="http://www.w3.org/2000/svg"><path fill-rule="evenodd" clip-rule="evenodd" d="M29.368.212c-.107.117-.194.377-.194.577v.364l-.76-.07c-.938-.087-1.603.135-2.21.737-.95.941-1.017 2.109-.204 3.567.65 1.168.719 1.736.308 2.568-.174.353-.353.642-.397.642-.043 0-.087-.253-.096-.563-.01-.31-.097-.715-.195-.9-.363-.69-1.13-1.209-1.789-1.209-.253 0-.285-.05-.285-.444 0-.553-.38-.95-.908-.95-.458 0-.851.457-.851.988 0 .347-.036.382-.449.448-.513.081-1.127.46-1.453.897-.383.511-.451 1.108-.238 2.07l.192.864-.404.3c-.66.49-1.157 1.073-1.493 1.752-.279.562-.317.777-.317 1.769 0 1.65-.01 1.642 2.435 1.717 2.17.066 2.456.157 2.984.947.384.575.42 1.351.104 2.277-.166.49-.27.625-.52.682-.442.101-1.279.592-1.417.83-.1.172-.632-.307-3.553-3.197-3.056-3.023-3.476-3.398-3.807-3.398-.262 0-.444.09-.615.306-.504.636-.48.668 3.01 4.14l3.255 3.235-2.052-.98a855.872 855.872 0 0 1-6.508-3.173l-4.455-2.192-.152-.639c-.303-1.278-.164-4.384.23-5.14.218-.42.564-.195 2.114 1.376 1.504 1.524 1.98 1.905 2.38 1.905.324 0 .763-.538.763-.936 0-.314-.23-.599-1.613-1.997-1.911-1.932-2.42-2.295-3.221-2.295-1.18 0-1.92.626-2.242 1.898-.285 1.122-.434 2.783-.349 3.893l.074.97-.692-.347c-1.118-.558-1.588-.663-2.208-.491-.64.177-1.284.766-1.48 1.352-.283.853.124 3.027.868 4.621a10.899 10.899 0 0 0 1.798 2.743l.527.581h-.66c-1.387 0-2.293.854-2.293 2.16 0 .653.214 1.164.867 2.066 1.26 1.741 3.162 3.151 4.968 3.682.499.146.5.148.279.39-.374.407-.486.723-.486 1.366.001.84.287 1.262 1.3 1.91 1.604 1.03 3.242 1.536 5.286 1.637l1.368.067-.273.42c-.524.804-.479 1.73.119 2.433.484.57 1.095.738 2.928.804l1.642.059.013.921.013.922-2.46 1.22-2.459 1.219-.458-.182c-.578-.229-1.162-.23-1.709-.004-.235.097-.464.136-.509.087-.044-.05-.374-.528-.732-1.064l-.652-.974.28-.42c.573-.86.623-2.175.118-3.141-.266-.51-1.277-1.344-1.827-1.508-.273-.08-.86-.13-1.301-.11l-.804.036-.309-.463c-.4-.602-.602-.753-1.003-.753-.802 0-1.033.869-.459 1.726l.34.507-.302.575a3.175 3.175 0 0 0 1.431 4.338c.568.276.76.31 1.52.272l.871-.044.656.952c.36.524.655.986.655 1.027 0 .04-.127.24-.282.443-.358.469-.576 1.269-.476 1.745.124.587.604 1.314 1.05 1.587.35.215.412.316.412.683 0 1.475 1.63 2.564 3.098 2.07l.537-.182.488.719c.955 1.408 1.135 1.59 1.573 1.59.244 0 .492-.09.635-.232.4-.396.295-.82-.488-1.966l-.723-1.058.248-.261c.285-.3.611-1.018.611-1.344 0-.165.175-.286.675-.467 1.466-.53 4.058-1.41 4.157-1.41.058 0 .07.3.027.68-.214 1.874 1.046 3.334 3.265 3.782l.707.143.137.536c.243.947.887 1.58 2.186 2.148.657.287 1.39.926 2 1.744.415.556.496.61.917.61.42 0 .501-.054.916-.61.633-.849 1.273-1.392 2.084-1.77 1.289-.6 1.86-1.176 2.102-2.122l.137-.536.707-.143c2.22-.449 3.48-1.908 3.265-3.782l-.078-.681.587.229c.323.126 1.56.602 2.75 1.059 1.957.75 2.19.87 2.439 1.244.35.527 1.016.866 1.835.933.553.046.694.109.994.448.6.677 1.313.912 2.2.723.845-.18 1.361-.687 1.932-1.898.38-.809.584-1.104.882-1.274 1.549-.888 2.457-2.48 2.457-4.31 0-2.238-1.342-4.068-3.489-4.758-.585-.189-.615-.218-.615-.6 0-.516-.435-.974-.924-.974-.441 0-.835.467-.835.99 0 .353-.04.391-.614.577-.895.29-1.506.68-2.192 1.398-.658.69-1.147 1.642-1.259 2.45-.039.28-.092.51-.118.51-.026 0-.833-.429-1.794-.954l-1.746-.954.021-.949.022-.948 1.642-.055c1.833-.062 2.438-.228 2.928-.805.598-.703.643-1.63.119-2.434l-.273-.419 1.368-.068c1.432-.07 2.246-.238 3.569-.735 1.038-.39 2.488-1.334 2.783-1.813.42-.683.268-1.952-.29-2.41-.163-.134-.06-.202.788-.518a9.468 9.468 0 0 0 3.341-2.176c1.738-1.746 2.34-3.09 1.898-4.243-.303-.792-1.164-1.315-2.166-1.315h-.66l.482-.542c.607-.683.697-1.008.392-1.414-.161-.215-.36-.32-.648-.345-.378-.032-.492.04-1.22.765-.442.44-1.1.994-1.461 1.231l-.658.432-5.615.225c-3.088.124-5.905.223-6.26.22l-.645-.006 2.99-1.477c1.644-.812 5.436-2.67 8.427-4.128 6.267-3.056 5.92-2.97 5.65-1.384-.29 1.704-.293 1.62.047 1.956.256.253.382.297.685.237.205-.04.436-.138.514-.217.205-.204.5-1.398.583-2.367.062-.705.035-.908-.178-1.343-.281-.577-.685-.916-1.343-1.13-.581-.19-1.098-.088-2.113.419l-.818.408.074-.97c.085-1.109-.064-2.77-.348-3.892-.22-.863-.684-1.488-1.296-1.741-.513-.213-1.372-.198-1.829.031-.206.104-3.263 3.07-6.792 6.593-5.506 5.496-6.435 6.377-6.542 6.205-.148-.24-.988-.73-1.419-.83-.259-.059-.348-.197-.57-.881-.305-.94-.261-1.45.181-2.122.489-.742.803-.838 2.95-.904 2.447-.075 2.437-.067 2.437-1.717 0-.992-.039-1.207-.317-1.769-.337-.679-.833-1.261-1.494-1.752l-.403-.3.192-.865c.213-.96.144-1.558-.239-2.07-.326-.436-.94-.815-1.453-.896-.413-.066-.449-.101-.449-.448 0-.54-.393-.988-.867-.988-.519 0-.892.404-.892.966 0 .376-.034.428-.285.428-.659 0-1.425.518-1.79 1.209-.097.185-.184.59-.194.9-.01.31-.053.563-.096.563-.044 0-.222-.289-.397-.642-.41-.832-.342-1.4.308-2.568.805-1.444.76-2.506-.15-3.483-.609-.655-1.286-.91-2.197-.828l-.696.062-.078-.366c-.043-.2-.16-.457-.26-.569-.245-.275-.985-.27-1.24.01Zm.627 2.739c.612 0 1.382-.043 1.71-.095.563-.09.61-.078.85.224.321.405.318.693-.016 1.277l-.266.464h-4.558l-.265-.464c-.333-.584-.337-.872-.015-1.277.24-.302.286-.314.85-.224.327.052 1.097.095 1.71.095Zm1.693 4.408a4.257 4.257 0 0 0 1.05 2.372l.42.461-.673.443c-.793.521-1.727 1.449-2.139 2.123-.16.264-.32.48-.351.48-.033 0-.19-.216-.352-.48-.412-.674-1.346-1.602-2.14-2.123l-.673-.443.421-.461a4.256 4.256 0 0 0 1.05-2.372l.08-.737h3.228l.08.737Zm-7.687.467c.1.118.093.332-.024.843l-.156.684-1.131.033-1.131.033-.073-.324c-.04-.178-.115-.485-.165-.683-.168-.66-.017-.744 1.337-.744.879 0 1.247.043 1.343.158Zm14.65.034c.06.106.067.354.017.552-.05.198-.124.505-.164.683l-.074.324-1.13-.033-1.132-.033-.156-.684c-.22-.96-.167-1.001 1.32-1.001 1.004 0 1.229.033 1.319.192Zm14.773 1.173c.391.76.53 3.866.23 5.141l-.15.64-4.456 2.191c-4.917 2.419-8.586 4.187-8.499 4.096.032-.032 2.824-2.807 6.206-6.165 3.502-3.478 6.238-6.106 6.356-6.106.115 0 .256.091.313.203Zm-28.927 2.239c1.956.368 3.743 1.95 4.337 3.842.175.556.223 1.065.223 2.382v1.674h-2.123c-1.975 0-2.118-.014-2.044-.203.225-.575.31-1.495.195-2.137-.167-.942-.438-1.456-1.128-2.144-.861-.858-1.567-1.093-3.288-1.093-1.273 0-1.344-.012-1.344-.236 0-.697.685-1.625 1.465-1.983.543-.25 2.62-.306 3.707-.102Zm14.702.102c.78.357 1.465 1.285 1.465 1.983 0 .224-.07.236-1.343.236-1.053 0-1.479.05-1.964.23-1.709.634-2.768 2.445-2.465 4.215.068.4.16.817.205.929.076.189-.066.203-2.041.203h-2.123v-1.674c0-1.89.173-2.67.811-3.656.801-1.237 2.32-2.3 3.657-2.56.283-.056 1.148-.106 1.922-.111 1.138-.008 1.497.03 1.876.205ZM10.49 18.73c4.61 2.251 8.32 4.113 8.244 4.139-.128.042-2.432-.038-9.663-.334l-2.69-.11L5.73 22c-.913-.598-1.98-1.707-2.617-2.722-.893-1.423-1.627-4.026-1.258-4.466.08-.095.169-.173.198-.173.03 0 3.826 1.841 8.438 4.092Zm26.855 2.462.329.28V35.34l-.258.206c-.164.132-.567.236-1.114.287-2.309.215-4.017.97-5.634 2.49l-.674.633-.675-.633c-1.634-1.537-3.29-2.268-5.634-2.49-.546-.05-.95-.155-1.114-.286l-.257-.207V21.474l.329-.28.329-.281h14.044l.329.28Zm-12.944 1.743-.329.28v3.642l.33.28c.402.343.66.354 1.058.043.29-.226.306-.298.338-1.481l.033-1.244h8.325v7.884l-.838.204c-.988.24-2.13.784-2.829 1.347l-.5.402-.414-.36c-.587-.51-1.927-1.15-2.907-1.389l-.837-.203-.059-1.135c-.049-.948-.096-1.161-.286-1.299-.318-.23-.81-.205-1.137.058-.268.215-.277.275-.277 1.927 0 2.026.026 2.069 1.298 2.204 1.469.156 2.437.602 3.597 1.657.889.809 1.173.815 2.001.047 1.104-1.025 2.274-1.573 3.66-1.713.464-.048.878-.162 1.031-.285l.256-.205v-10.38l-.33-.281-.328-.28H24.73l-.329.28Zm-11.967 1.48c3.853.145 6.966.3 6.918.346-.048.046-2.262 1.031-4.921 2.19L9.598 29.06l-.853-.08c-1.174-.111-2.464-.497-3.409-1.021-1.763-.977-3.676-3.306-3.16-3.846.049-.05.8-.062 1.671-.026.871.037 4.735.185 8.588.33Zm45.442-.01c.048.413-.736 1.543-1.674 2.412-1.335 1.237-3.036 1.98-4.95 2.16l-.843.08-4.843-2.106c-2.664-1.159-4.894-2.155-4.955-2.214-.069-.066.383-.11 1.172-.117.706-.005 4.107-.13 7.557-.277 3.45-.147 6.774-.26 7.387-.252 1.103.016 1.114.019 1.149.314Zm-37.38 2.963v1.113l-2.181 2.373-2.182 2.374-.838.261c-1.217.38-3.512.373-4.764-.014-1.936-.598-3.351-1.57-2.61-1.793.113-.034 2.949-1.266 6.302-2.737 3.354-1.472 6.137-2.679 6.185-2.682.049-.004.088.494.088 1.105Zm25.583 1.71c4.215 1.836 6.192 2.752 6.192 2.871 0 .318-1.452 1.105-2.815 1.526-1.252.387-3.547.393-4.764.014l-.838-.261-2.181-2.374-2.182-2.373v-1.125c0-1.007.02-1.117.198-1.05.108.042 2.984 1.29 6.39 2.772Zm-25.312 6.906.202.375-.804.401c-1.133.566-2.027.768-3.32.752-1.23-.015-1.761-.1-1.825-.288-.023-.07 1.186-1.473 2.688-3.116l2.73-2.988.064 2.244c.051 1.813.102 2.317.265 2.62Zm21.754-1.62c1.44 1.578 2.445 2.772 2.41 2.862-.08.206-.69.297-1.989.299-1.208.001-1.952-.182-3.13-.77l-.794-.396.203-.375c.166-.308.21-.777.249-2.625l.046-2.25.268.274c.148.152 1.38 1.493 2.737 2.982Zm-20.17 4.048c.003.62.074.912.367 1.5.2.402.549.893.776 1.091.447.389.447.392-.114 1.091-.326.406-.392.437-.77.368-1.674-.309-2.844-1.64-2.485-2.826.23-.76.623-1.21 1.41-1.615.408-.208.756-.379.776-.379.019 0 .037.347.04.77Zm2.852-.535c.41.13.917.327 1.127.44l.381.203-.748.735c-.858.842-1.067.862-1.535.15-.272-.414-.351-.779-.315-1.443.022-.385.116-.392 1.09-.085Zm10.67.085c.05.895-.24 1.632-.747 1.901-.21.112-.333.035-1.002-.628l-.763-.757.397-.205c.469-.243 1.6-.616 1.893-.625.143-.004.21.09.223.314Zm3.004.296c.5.333.93.96 1.028 1.497.214 1.169-.887 2.368-2.48 2.702-.333.07-.409.024-.867-.518l-.502-.594.422-.345c.655-.535 1.153-1.646 1.159-2.584l.004-.766.427.176c.234.097.599.291.81.432Zm-31.06.027c.729.608.729 1.591 0 2.2-.637.53-1.776.319-2.151-.4-.357-.683-.124-1.578.498-1.913.518-.278 1.242-.23 1.652.113Zm21.072 2.03c.991.943 1.22.941 2.222-.013l.746-.71.333.235c.458.324 2.711 2.806 3.532 3.892.852 1.128 1.505 2.387 1.686 3.255.128.61.12.717-.09 1.1-.128.237-.438.54-.7.686-.442.246-1.413.474-1.53.36-.028-.03-.158-.463-.287-.964-.13-.501-.323-1.007-.43-1.123-.254-.28-.996-.284-1.234-.01-.309.357-.322.579-.084 1.388.294 1.002.422 2.573.238 2.914-.074.138-.596.486-1.16.774-.563.289-1.274.753-1.58 1.032l-.557.507-.557-.507c-.307-.279-1.018-.743-1.582-1.032-.563-.288-1.085-.636-1.159-.774-.226-.418-.044-2.032.367-3.25.423-1.253.786-1.91 1.447-2.621.817-.878 1.444-1.043 2.304-.609.253.128.594.233.758.233.702 0 1.037-.986.503-1.483-.77-.715-2.342-.945-3.354-.49-1.677.754-3.094 2.947-3.708 5.734-.068.31-.104.33-.518.275-.732-.097-1.508-.5-1.775-.92-.736-1.161.732-3.834 3.93-7.154.754-.782 1.402-1.423 1.439-1.423.037 0 .397.314.8.697Zm22.626.229c2.085.886 2.62 3.742.991 5.289l-.353.335-.38-.365c-.477-.457-1.114-.725-1.723-.725-.398 0-.547-.077-.98-.507-.381-.377-.666-.543-1.119-.65-.334-.08-.683-.116-.775-.081-.379.144-.299-.983.129-1.824.754-1.486 2.633-2.143 4.21-1.472Zm-31.949 2.278c.256.305 1.105.842 1.693 1.071l.554.216-2.447.85a428.58 428.58 0 0 1-3.286 1.131l-.84.28-.397-.257c-.323-.21-.399-.335-.413-.689l-.017-.432 2.426-1.17c1.334-.642 2.46-1.172 2.5-1.176.04-.004.143.075.227.176ZM42.93 43.9c1.206.662 2.22 1.248 2.255 1.303.046.075-.427 1.172-.586 1.357-.014.016-.68-.224-1.48-.533L39.91 44.79l-1.75-.675.56-.218c.598-.233 1.445-.768 1.704-1.078.087-.103.192-.173.235-.155.043.018 1.064.574 2.27 1.236Zm-30.41 1.23c.076.092.122.312.101.488-.03.258-.189.408-.8.76-.86.496-1.163.542-1.457.22-.321-.352-.128-.658.732-1.165.839-.493 1.2-.57 1.423-.303Zm35.222.561c.315.228.277.587-.158 1.479-.446.912-.769 1.118-1.178.751-.305-.273-.296-.345.172-1.363.465-1.01.712-1.194 1.164-.867Zm2.75 1.27c.233.232.16.64-.264 1.475-.247.486-.495.819-.637.855-.296.077-.718-.21-.718-.487 0-.262.556-1.503.797-1.78.205-.234.617-.266.821-.063Zm-36.448.726c.3.358.09.685-.78 1.21-.652.392-.915.491-1.149.433-.167-.041-.333-.152-.37-.247-.149-.384.079-.702.805-1.124.786-.457 1.266-.545 1.494-.273Z" fill="#7584AA"/><path d="M83.23 22.074v5.256h-2.178V24h-9.558V11.526h2.268v10.548h5.328V11.526h2.268v10.548h1.872ZM85.03 24V11.526h8.01v1.926h-5.743v3.078h5.112v1.89h-5.112v3.654h6.174V24H85.03Zm18.232-12.474h2.268V24h-2.268v-5.526h-5.418V24h-2.268V11.526h2.268v4.986h5.418v-4.986Zm13.946 0v1.962h-3.834V24h-2.286V13.488h-3.834v-1.962h9.954Zm5.257-.126c1.812 0 3.198.33 4.158.99.972.66 1.458 1.692 1.458 3.096 0 .732-.132 1.362-.396 1.89a3.263 3.263 0 0 1-1.116 1.278c-.492.324-1.092.564-1.8.72-.708.156-1.518.234-2.43.234h-1.134V24h-2.268V11.706a10.6 10.6 0 0 1 1.746-.234 24.273 24.273 0 0 1 1.782-.072Zm.162 1.962c-.576 0-1.05.018-1.422.054v4.248h1.098c1.092 0 1.932-.15 2.52-.45.588-.312.882-.894.882-1.746 0-.408-.078-.75-.234-1.026a1.681 1.681 0 0 0-.648-.648 2.913 2.913 0 0 0-.99-.324 6.349 6.349 0 0 0-1.206-.108ZM77.038 45.27c-.936 0-1.776-.144-2.52-.432a5.033 5.033 0 0 1-1.89-1.26c-.516-.564-.912-1.248-1.188-2.052-.276-.804-.414-1.728-.414-2.772 0-1.044.156-1.968.468-2.772.324-.804.762-1.482 1.314-2.034a5.43 5.43 0 0 1 1.944-1.278 6.574 6.574 0 0 1 2.394-.432c.516 0 .984.042 1.404.126.42.072.786.156 1.098.252.312.096.57.198.774.306.204.108.348.186.432.234l-.666 1.854c-.288-.18-.702-.348-1.242-.504a5.673 5.673 0 0 0-1.728-.252c-.54 0-1.044.096-1.512.288a3.26 3.26 0 0 0-1.224.828c-.336.372-.6.84-.792 1.404-.192.564-.288 1.218-.288 1.962 0 .66.072 1.266.216 1.818.156.552.39 1.032.702 1.44.312.396.708.708 1.188.936.48.216 1.056.324 1.728.324.804 0 1.458-.078 1.962-.234a8.35 8.35 0 0 0 1.17-.468l.612 1.854a3.054 3.054 0 0 1-.594.288c-.24.096-.528.192-.864.288-.336.084-.714.15-1.134.198-.42.06-.87.09-1.35.09Zm5.934-.27V32.526h8.01v1.926H85.24v3.078h5.113v1.89H85.24v3.654h6.174V45h-8.443Zm14.075-12.6c1.812 0 3.198.33 4.158.99.972.66 1.458 1.692 1.458 3.096 0 .732-.132 1.362-.396 1.89a3.263 3.263 0 0 1-1.116 1.278c-.492.324-1.092.564-1.8.72-.708.156-1.518.234-2.43.234h-1.134V45H93.52V32.706a10.6 10.6 0 0 1 1.746-.234 24.273 24.273 0 0 1 1.782-.072Zm.162 1.962c-.576 0-1.05.018-1.422.054v4.248h1.098c1.092 0 1.932-.15 2.52-.45.588-.312.882-.894.882-1.746 0-.408-.078-.75-.234-1.026a1.678 1.678 0 0 0-.648-.648 2.913 2.913 0 0 0-.99-.324 6.349 6.349 0 0 0-1.206-.108Zm16.219-1.836v1.962h-3.834V45h-2.286V34.488h-3.834v-1.962h9.954ZM115.158 45V32.526h2.25v8.28c.408-.648.87-1.344 1.386-2.088a96.737 96.737 0 0 1 1.62-2.25 89.594 89.594 0 0 1 1.674-2.142 26.526 26.526 0 0 1 1.548-1.8h1.854V45h-2.232v-8.928c-.504.6-1.038 1.278-1.602 2.034a60.633 60.633 0 0 0-1.638 2.322 89.803 89.803 0 0 0-1.566 2.376c-.504.78-.96 1.512-1.368 2.196h-1.926Zm18.508-9.972c-1.056.06-1.902.384-2.538.972-.624.588-.936 1.368-.936 2.34 0 .492.078.936.234 1.332.168.396.402.738.702 1.026.312.276.678.498 1.098.666.432.156.912.24 1.44.252v-6.588Zm0 9.972v-1.494c-.864-.024-1.65-.168-2.358-.432a5.8 5.8 0 0 1-1.836-1.08 4.802 4.802 0 0 1-1.17-1.602 4.972 4.972 0 0 1-.414-2.034c0-.72.138-1.386.414-1.998a4.753 4.753 0 0 1 1.17-1.62 5.88 5.88 0 0 1 1.836-1.116c.708-.276 1.494-.438 2.358-.486v-1.422h2.214v1.422c.864.048 1.65.21 2.358.486a5.658 5.658 0 0 1 1.818 1.116c.504.456.894.996 1.17 1.62.288.612.432 1.278.432 1.998 0 .732-.144 1.41-.432 2.034a4.802 4.802 0 0 1-1.17 1.602 5.582 5.582 0 0 1-1.818 1.08c-.708.264-1.494.408-2.358.432V45h-2.214Zm2.214-3.384c.516-.012.99-.096 1.422-.252.432-.168.798-.39 1.098-.666.3-.288.534-.63.702-1.026a3.38 3.38 0 0 0 .252-1.332c0-.972-.318-1.752-.954-2.34-.624-.588-1.464-.912-2.52-.972v6.588ZM144.057 45V32.526h2.25v8.28c.408-.648.87-1.344 1.386-2.088a96.737 96.737 0 0 1 1.62-2.25 89.594 89.594 0 0 1 1.674-2.142 26.526 26.526 0 0 1 1.548-1.8h1.854V45h-2.232v-8.928c-.504.6-1.038 1.278-1.602 2.034a60.633 60.633 0 0 0-1.638 2.322 89.803 89.803 0 0 0-1.566 2.376c-.504.78-.96 1.512-1.368 2.196h-1.926Zm20.776 0c-.312-.48-.672-.984-1.08-1.512a22.387 22.387 0 0 0-1.296-1.53c-.444-.492-.906-.96-1.386-1.404-.48-.444-.954-.828-1.422-1.152V45h-2.268V32.526h2.268v5.148c.396-.396.81-.816 1.242-1.26a133.226 133.226 0 0 0 2.502-2.718c.384-.432.732-.822 1.044-1.17h2.718c-.396.456-.816.93-1.26 1.422-.444.492-.9.99-1.368 1.494-.468.492-.942.984-1.422 1.476-.468.492-.93.96-1.386 1.404.504.384 1.014.834 1.53 1.35.528.504 1.044 1.05 1.548 1.638.504.576.984 1.182 1.44 1.818.468.624.894 1.248 1.278 1.872h-2.682Zm13.097 0a52.107 52.107 0 0 0-.522-1.458c-.18-.48-.354-.972-.522-1.476h-5.256a54.615 54.615 0 0 1-.522 1.494l-.504 1.44h-2.358c.468-1.332.912-2.562 1.332-3.69.42-1.128.828-2.196 1.224-3.204.408-1.008.81-1.968 1.206-2.88.396-.912.804-1.812 1.224-2.7h2.142a88.343 88.343 0 0 1 2.412 5.58c.408 1.008.822 2.076 1.242 3.204a141.63 141.63 0 0 1 1.35 3.69h-2.448Zm-3.672-10.062c-.276.636-.594 1.41-.954 2.322-.348.912-.714 1.902-1.098 2.97h4.104a121.413 121.413 0 0 0-1.116-2.988 71.671 71.671 0 0 0-.936-2.304Zm19.433 8.136v5.256h-2.178V45h-9.558V32.526h2.268v10.548h5.328V32.526h2.268v10.548h1.872ZM195.49 45V32.526h2.25v8.28c.408-.648.87-1.344 1.386-2.088a96.737 96.737 0 0 1 1.62-2.25 89.594 89.594 0 0 1 1.674-2.142 26.526 26.526 0 0 1 1.548-1.8h1.854V45h-2.232v-8.928c-.504.6-1.038 1.278-1.602 2.034a60.633 60.633 0 0 0-1.638 2.322 89.803 89.803 0 0 0-1.566 2.376c-.504.78-.96 1.512-1.368 2.196h-1.926Zm13.324 0V32.526h2.25v8.28c.408-.648.87-1.344 1.386-2.088a96.737 96.737 0 0 1 1.62-2.25 89.594 89.594 0 0 1 1.674-2.142 26.526 26.526 0 0 1 1.548-1.8h1.854V45h-2.232v-8.928c-.504.6-1.038 1.278-1.602 2.034a60.633 60.633 0 0 0-1.638 2.322 89.803 89.803 0 0 0-1.566 2.376c-.504.78-.96 1.512-1.368 2.196h-1.926Z" fill="#7584AA"/></svg>